<mxfile host="app.diagrams.net" modified="2024-02-25T11:43:59.776Z" agent="Mozilla/5.0 (Windows NT 10.0; Win64; x64; rv:123.0) Gecko/20100101 Firefox/123.0" etag="lA3AUI4zLrnvDVj-Y1bB" version="23.1.6" type="github">
  <diagram name="Seite-1" id="njIstXmUKpf4IIMb_T_h">
    <mxGraphModel dx="368" dy="660" grid="1" gridSize="10" guides="1" tooltips="1" connect="1" arrows="1" fold="1" page="1" pageScale="1" pageWidth="827" pageHeight="1169" math="0" shadow="0">
      <root>
        <mxCell id="0" />
        <mxCell id="1" parent="0" />
        <mxCell id="fi5I6clXiMdPTCbFqO6w-3" value="" style="shape=image;html=1;verticalAlign=top;verticalLabelPosition=bottom;labelBackgroundColor=#ffffff;imageAspect=0;aspect=fixed;image=https://cdn1.iconfinder.com/data/icons/computer-hardware-glyphs-vol-2/52/processor__computer__microchip__cpu__chip__device__frequency-128.png" vertex="1" parent="1">
          <mxGeometry x="860.38" y="72.49999999999997" width="20" height="20" as="geometry" />
        </mxCell>
        <mxCell id="fi5I6clXiMdPTCbFqO6w-4" value="" style="sketch=0;outlineConnect=0;fontColor=#232F3E;gradientColor=none;fillColor=#232F3D;strokeColor=none;dashed=0;verticalLabelPosition=bottom;verticalAlign=top;align=center;html=1;fontSize=12;fontStyle=0;aspect=fixed;pointerEvents=1;shape=mxgraph.aws4.traditional_server;" vertex="1" parent="1">
          <mxGeometry x="860.38" y="200" width="21" height="36.4" as="geometry" />
        </mxCell>
        <mxCell id="fi5I6clXiMdPTCbFqO6w-38" value="" style="verticalLabelPosition=bottom;html=1;verticalAlign=top;align=center;shape=mxgraph.floorplan.doorLeft;aspect=fixed;rotation=90;" vertex="1" parent="1">
          <mxGeometry x="980.38" y="280" width="80" height="85" as="geometry" />
        </mxCell>
        <mxCell id="fi5I6clXiMdPTCbFqO6w-39" value="" style="verticalLabelPosition=bottom;html=1;verticalAlign=top;align=center;shape=mxgraph.floorplan.doorRight;aspect=fixed;" vertex="1" parent="1">
          <mxGeometry x="1061.38" y="40" width="80" height="85" as="geometry" />
        </mxCell>
        <mxCell id="fi5I6clXiMdPTCbFqO6w-40" value="" style="verticalLabelPosition=bottom;html=1;verticalAlign=top;align=center;shape=mxgraph.floorplan.wall;fillColor=strokeColor;direction=south;" vertex="1" parent="1">
          <mxGeometry x="1051.38" y="40" width="10" height="120" as="geometry" />
        </mxCell>
        <mxCell id="fi5I6clXiMdPTCbFqO6w-41" value="" style="verticalLabelPosition=bottom;html=1;verticalAlign=top;align=center;shape=mxgraph.floorplan.wall;fillColor=strokeColor;direction=south;" vertex="1" parent="1">
          <mxGeometry x="1141.38" y="40" width="10" height="120" as="geometry" />
        </mxCell>
        <mxCell id="fi5I6clXiMdPTCbFqO6w-42" value="" style="verticalLabelPosition=bottom;html=1;verticalAlign=top;align=center;shape=mxgraph.floorplan.wall;fillColor=strokeColor;" vertex="1" parent="1">
          <mxGeometry x="1039.38" y="150" width="21" height="10" as="geometry" />
        </mxCell>
        <mxCell id="fi5I6clXiMdPTCbFqO6w-43" value="" style="verticalLabelPosition=bottom;html=1;verticalAlign=top;align=center;shape=mxgraph.floorplan.wallCorner;fillColor=strokeColor;direction=south;" vertex="1" parent="1">
          <mxGeometry x="940.38" y="50" width="100" height="110" as="geometry" />
        </mxCell>
        <mxCell id="fi5I6clXiMdPTCbFqO6w-44" value="" style="verticalLabelPosition=bottom;html=1;verticalAlign=top;align=center;shape=mxgraph.floorplan.wallCorner;fillColor=strokeColor;" vertex="1" parent="1">
          <mxGeometry x="840.38" y="50" width="100" height="120" as="geometry" />
        </mxCell>
        <mxCell id="fi5I6clXiMdPTCbFqO6w-45" value="" style="verticalLabelPosition=bottom;html=1;verticalAlign=top;align=center;shape=mxgraph.floorplan.wallCorner;fillColor=strokeColor;direction=north" vertex="1" parent="1">
          <mxGeometry x="840.38" y="165" width="100" height="90" as="geometry" />
        </mxCell>
        <mxCell id="fi5I6clXiMdPTCbFqO6w-46" value="" style="verticalLabelPosition=bottom;html=1;verticalAlign=top;align=center;shape=mxgraph.floorplan.wall;fillColor=strokeColor;direction=south;" vertex="1" parent="1">
          <mxGeometry x="1051.38" y="245" width="10" height="35" as="geometry" />
        </mxCell>
        <mxCell id="fi5I6clXiMdPTCbFqO6w-47" value="" style="verticalLabelPosition=bottom;html=1;verticalAlign=top;align=center;shape=mxgraph.floorplan.wall;fillColor=strokeColor;" vertex="1" parent="1">
          <mxGeometry x="939.9999999999999" y="245" width="120.38" height="10" as="geometry" />
        </mxCell>
        <mxCell id="fi5I6clXiMdPTCbFqO6w-48" value="" style="verticalLabelPosition=bottom;html=1;verticalAlign=top;align=center;shape=mxgraph.floorplan.doorRight;aspect=fixed;rotation=90;" vertex="1" parent="1">
          <mxGeometry x="980.38" y="160" width="80" height="85" as="geometry" />
        </mxCell>
        <mxCell id="fi5I6clXiMdPTCbFqO6w-49" value="" style="verticalLabelPosition=bottom;html=1;verticalAlign=top;align=center;shape=mxgraph.floorplan.wall;fillColor=strokeColor;" vertex="1" parent="1">
          <mxGeometry x="840" y="270" width="219.62" height="10" as="geometry" />
        </mxCell>
        <mxCell id="fi5I6clXiMdPTCbFqO6w-51" value="" style="verticalLabelPosition=bottom;html=1;verticalAlign=top;align=center;shape=mxgraph.floorplan.wallCorner;fillColor=strokeColor;" vertex="1" parent="1">
          <mxGeometry x="840" y="270" width="100" height="100" as="geometry" />
        </mxCell>
        <mxCell id="fi5I6clXiMdPTCbFqO6w-52" value="" style="verticalLabelPosition=bottom;html=1;verticalAlign=top;align=center;shape=mxgraph.floorplan.wallCorner;fillColor=strokeColor;direction=north" vertex="1" parent="1">
          <mxGeometry x="840.38" y="370" width="100" height="100" as="geometry" />
        </mxCell>
        <mxCell id="fi5I6clXiMdPTCbFqO6w-53" value="" style="verticalLabelPosition=bottom;html=1;verticalAlign=top;align=center;shape=mxgraph.floorplan.wall;fillColor=strokeColor;" vertex="1" parent="1">
          <mxGeometry x="940.38" y="460" width="100" height="10" as="geometry" />
        </mxCell>
        <mxCell id="fi5I6clXiMdPTCbFqO6w-54" value="" style="verticalLabelPosition=bottom;html=1;verticalAlign=top;align=center;shape=mxgraph.floorplan.wallCorner;fillColor=strokeColor;direction=west" vertex="1" parent="1">
          <mxGeometry x="961.38" y="360" width="100" height="110" as="geometry" />
        </mxCell>
        <mxCell id="fi5I6clXiMdPTCbFqO6w-55" value="" style="verticalLabelPosition=bottom;html=1;verticalAlign=top;align=center;shape=mxgraph.floorplan.wall;fillColor=strokeColor;" vertex="1" parent="1">
          <mxGeometry x="1056.88" y="360" width="89" height="10" as="geometry" />
        </mxCell>
        <mxCell id="fi5I6clXiMdPTCbFqO6w-56" value="" style="verticalLabelPosition=bottom;html=1;verticalAlign=top;align=center;shape=mxgraph.floorplan.wallCorner;fillColor=strokeColor;direction=north" vertex="1" parent="1">
          <mxGeometry x="1141.38" y="360" width="100" height="110" as="geometry" />
        </mxCell>
        <mxCell id="fi5I6clXiMdPTCbFqO6w-57" value="" style="verticalLabelPosition=bottom;html=1;verticalAlign=top;align=center;shape=mxgraph.floorplan.doorLeft;aspect=fixed;rotation=0;" vertex="1" parent="1">
          <mxGeometry x="1151.38" y="360" width="80" height="85" as="geometry" />
        </mxCell>
        <mxCell id="fi5I6clXiMdPTCbFqO6w-58" value="" style="verticalLabelPosition=bottom;html=1;verticalAlign=top;align=center;shape=mxgraph.floorplan.wall;fillColor=strokeColor;" vertex="1" parent="1">
          <mxGeometry x="1241.38" y="460" width="100" height="10" as="geometry" />
        </mxCell>
        <mxCell id="fi5I6clXiMdPTCbFqO6w-60" value="" style="verticalLabelPosition=bottom;html=1;verticalAlign=top;align=center;shape=mxgraph.floorplan.wall;fillColor=strokeColor;direction=south;" vertex="1" parent="1">
          <mxGeometry x="1141.38" y="160" width="10" height="100" as="geometry" />
        </mxCell>
        <mxCell id="fi5I6clXiMdPTCbFqO6w-61" value="" style="verticalLabelPosition=bottom;html=1;verticalAlign=top;align=center;shape=mxgraph.floorplan.doorLeft;aspect=fixed;rotation=90;" vertex="1" parent="1">
          <mxGeometry x="1150.38" y="270" width="80" height="85" as="geometry" />
        </mxCell>
        <mxCell id="fi5I6clXiMdPTCbFqO6w-62" value="" style="verticalLabelPosition=bottom;html=1;verticalAlign=top;align=center;shape=mxgraph.floorplan.wall;fillColor=strokeColor;" vertex="1" parent="1">
          <mxGeometry x="1140.38" y="255" width="110" height="10" as="geometry" />
        </mxCell>
        <mxCell id="fi5I6clXiMdPTCbFqO6w-63" value="" style="verticalLabelPosition=bottom;html=1;verticalAlign=top;align=center;shape=mxgraph.floorplan.wall;fillColor=strokeColor;" vertex="1" parent="1">
          <mxGeometry x="1250.38" y="255" width="100" height="10" as="geometry" />
        </mxCell>
        <mxCell id="fi5I6clXiMdPTCbFqO6w-66" value="" style="verticalLabelPosition=bottom;html=1;verticalAlign=top;align=center;shape=mxgraph.floorplan.wallCorner;fillColor=strokeColor;direction=west" vertex="1" parent="1">
          <mxGeometry x="1230.38" y="260" width="120" height="100" as="geometry" />
        </mxCell>
        <mxCell id="fi5I6clXiMdPTCbFqO6w-69" value="" style="verticalLabelPosition=bottom;html=1;verticalAlign=top;align=center;shape=mxgraph.floorplan.wall;fillColor=strokeColor;direction=south;" vertex="1" parent="1">
          <mxGeometry x="1340.38" y="350" width="10" height="120" as="geometry" />
        </mxCell>
        <mxCell id="fi5I6clXiMdPTCbFqO6w-72" value="" style="edgeStyle=orthogonalEdgeStyle;rounded=0;orthogonalLoop=1;jettySize=auto;html=1;endArrow=none;endFill=0;" edge="1" parent="1" source="fi5I6clXiMdPTCbFqO6w-70" target="fi5I6clXiMdPTCbFqO6w-4">
          <mxGeometry relative="1" as="geometry" />
        </mxCell>
        <mxCell id="fi5I6clXiMdPTCbFqO6w-70" value="" style="sketch=0;pointerEvents=1;shadow=0;dashed=0;html=1;strokeColor=none;fillColor=#434445;aspect=fixed;labelPosition=center;verticalLabelPosition=bottom;verticalAlign=top;align=center;outlineConnect=0;shape=mxgraph.vvd.physical_upstream_router;" vertex="1" parent="1">
          <mxGeometry x="910.38" y="216.39999999999998" width="20" height="20" as="geometry" />
        </mxCell>
        <mxCell id="fi5I6clXiMdPTCbFqO6w-73" value="" style="sketch=0;aspect=fixed;pointerEvents=1;shadow=0;dashed=0;html=1;strokeColor=none;labelPosition=center;verticalLabelPosition=bottom;verticalAlign=top;align=center;fillColor=#00188D;shape=mxgraph.mscae.enterprise.wireless_connection" vertex="1" parent="1">
          <mxGeometry x="879.38" y="70" width="21" height="25" as="geometry" />
        </mxCell>
        <mxCell id="fi5I6clXiMdPTCbFqO6w-77" value="" style="shape=image;html=1;verticalAlign=top;verticalLabelPosition=bottom;labelBackgroundColor=#ffffff;imageAspect=0;aspect=fixed;image=https://cdn1.iconfinder.com/data/icons/computer-hardware-glyphs-vol-2/52/processor__computer__microchip__cpu__chip__device__frequency-128.png" vertex="1" parent="1">
          <mxGeometry x="860.38" y="300" width="20" height="20" as="geometry" />
        </mxCell>
        <mxCell id="fi5I6clXiMdPTCbFqO6w-78" value="" style="sketch=0;aspect=fixed;pointerEvents=1;shadow=0;dashed=0;html=1;strokeColor=none;labelPosition=center;verticalLabelPosition=bottom;verticalAlign=top;align=center;fillColor=#00188D;shape=mxgraph.mscae.enterprise.wireless_connection" vertex="1" parent="1">
          <mxGeometry x="879.38" y="297.5" width="21" height="25" as="geometry" />
        </mxCell>
        <mxCell id="fi5I6clXiMdPTCbFqO6w-79" value="" style="shape=image;html=1;verticalAlign=top;verticalLabelPosition=bottom;labelBackgroundColor=#ffffff;imageAspect=0;aspect=fixed;image=https://cdn1.iconfinder.com/data/icons/computer-hardware-glyphs-vol-2/52/processor__computer__microchip__cpu__chip__device__frequency-128.png" vertex="1" parent="1">
          <mxGeometry x="1260.38" y="400" width="20" height="20" as="geometry" />
        </mxCell>
        <mxCell id="fi5I6clXiMdPTCbFqO6w-80" value="" style="sketch=0;aspect=fixed;pointerEvents=1;shadow=0;dashed=0;html=1;strokeColor=none;labelPosition=center;verticalLabelPosition=bottom;verticalAlign=top;align=center;fillColor=#00188D;shape=mxgraph.mscae.enterprise.wireless_connection" vertex="1" parent="1">
          <mxGeometry x="1279.38" y="397.5" width="21" height="25" as="geometry" />
        </mxCell>
        <mxCell id="fi5I6clXiMdPTCbFqO6w-81" value="" style="shape=image;html=1;verticalAlign=top;verticalLabelPosition=bottom;labelBackgroundColor=#ffffff;imageAspect=0;aspect=fixed;image=https://cdn1.iconfinder.com/data/icons/computer-hardware-glyphs-vol-2/52/processor__computer__microchip__cpu__chip__device__frequency-128.png" vertex="1" parent="1">
          <mxGeometry x="1260.38" y="297.5" width="20" height="20" as="geometry" />
        </mxCell>
        <mxCell id="fi5I6clXiMdPTCbFqO6w-82" value="" style="sketch=0;aspect=fixed;pointerEvents=1;shadow=0;dashed=0;html=1;strokeColor=none;labelPosition=center;verticalLabelPosition=bottom;verticalAlign=top;align=center;fillColor=#00188D;shape=mxgraph.mscae.enterprise.wireless_connection" vertex="1" parent="1">
          <mxGeometry x="1279.38" y="295" width="21" height="25" as="geometry" />
        </mxCell>
        <mxCell id="fi5I6clXiMdPTCbFqO6w-83" value="SmartTempESP32" style="text;html=1;align=center;verticalAlign=middle;resizable=0;points=[];autosize=1;strokeColor=none;fillColor=none;fontSize=20;fontStyle=4" vertex="1" parent="1">
          <mxGeometry x="1160.38" y="40" width="190" height="40" as="geometry" />
        </mxCell>
        <mxCell id="fi5I6clXiMdPTCbFqO6w-85" value="" style="sketch=0;outlineConnect=0;fontColor=#232F3E;gradientColor=none;fillColor=#232F3D;strokeColor=none;dashed=0;verticalLabelPosition=bottom;verticalAlign=top;align=center;html=1;fontSize=12;fontStyle=0;aspect=fixed;pointerEvents=1;shape=mxgraph.aws4.traditional_server;" vertex="1" parent="1">
          <mxGeometry x="1170" y="86.8" width="21" height="36.4" as="geometry" />
        </mxCell>
        <mxCell id="fi5I6clXiMdPTCbFqO6w-86" value="" style="sketch=0;pointerEvents=1;shadow=0;dashed=0;html=1;strokeColor=none;fillColor=#434445;aspect=fixed;labelPosition=center;verticalLabelPosition=bottom;verticalAlign=top;align=center;outlineConnect=0;shape=mxgraph.vvd.physical_upstream_router;" vertex="1" parent="1">
          <mxGeometry x="1170" y="139.99999999999997" width="20" height="20" as="geometry" />
        </mxCell>
        <mxCell id="fi5I6clXiMdPTCbFqO6w-89" value="" style="shape=image;html=1;verticalAlign=top;verticalLabelPosition=bottom;labelBackgroundColor=#ffffff;imageAspect=0;aspect=fixed;image=https://cdn1.iconfinder.com/data/icons/computer-hardware-glyphs-vol-2/52/processor__computer__microchip__cpu__chip__device__frequency-128.png" vertex="1" parent="1">
          <mxGeometry x="1170" y="182.49999999999997" width="20" height="20" as="geometry" />
        </mxCell>
        <mxCell id="fi5I6clXiMdPTCbFqO6w-90" value="" style="sketch=0;aspect=fixed;pointerEvents=1;shadow=0;dashed=0;html=1;strokeColor=none;labelPosition=center;verticalLabelPosition=bottom;verticalAlign=top;align=center;fillColor=#00188D;shape=mxgraph.mscae.enterprise.wireless_connection" vertex="1" parent="1">
          <mxGeometry x="1189" y="180" width="21" height="25" as="geometry" />
        </mxCell>
        <mxCell id="fi5I6clXiMdPTCbFqO6w-91" value="Raspberry Pi 4" style="text;html=1;align=center;verticalAlign=middle;resizable=0;points=[];autosize=1;strokeColor=none;fillColor=none;" vertex="1" parent="1">
          <mxGeometry x="1241.38" y="95" width="100" height="30" as="geometry" />
        </mxCell>
        <mxCell id="fi5I6clXiMdPTCbFqO6w-92" value="FritzBox" style="text;html=1;align=center;verticalAlign=middle;resizable=0;points=[];autosize=1;strokeColor=none;fillColor=none;" vertex="1" parent="1">
          <mxGeometry x="1241" y="135" width="70" height="30" as="geometry" />
        </mxCell>
        <mxCell id="fi5I6clXiMdPTCbFqO6w-93" value="ESP32 D1 Mini" style="text;html=1;align=center;verticalAlign=middle;resizable=0;points=[];autosize=1;strokeColor=none;fillColor=none;" vertex="1" parent="1">
          <mxGeometry x="1230.38" y="177.5" width="110" height="30" as="geometry" />
        </mxCell>
      </root>
    </mxGraphModel>
  </diagram>
</mxfile>
